M48
METRIC,TZ
T1C0.635
T2C0.813
T3C1.016
T4C2.500
T5C3.000
%
G90
G05
T1
X55880Y-40640
X57150Y-41910
X58420Y-31750
X58420Y-34290
X64770Y-17780
X64770Y-41910
X66040Y-15240
X68580Y-16510
X69850Y-16510
X69850Y-28575
X69850Y-34925
X71120Y-17780
X71120Y-36830
X71755Y-33655
X73660Y-36195
X74295Y-44450
X75565Y-34925
X76200Y-30480
X77470Y-16510
X77470Y-38100
X80010Y-16510
X83820Y-16510
X96520Y-39370
X106680Y-39370
T2
X22860Y-63500
X23495Y-91440
X23495Y-93980
X24130Y-73025
X24130Y-83185
X25400Y-63500
X25400Y-85725
X26035Y-102870
X27305Y-100330
X27940Y-75565
X27940Y-83185
X27940Y-85725
X28575Y-102870
X29845Y-97790
X29845Y-100330
X30480Y-63500
X30480Y-73025
X30480Y-75565
X30480Y-83185
X31115Y-102870
X33020Y-63500
X33020Y-73025
X33020Y-75565
X33020Y-83185
X33655Y-91440
X33655Y-93980
X33655Y-97790
X33655Y-100330
X33655Y-102870
X35560Y-73025
X35560Y-75565
X35560Y-83185
X36830Y-22860
X36830Y-25400
X36830Y-27940
X36830Y-30480
X36830Y-33020
X36830Y-35560
X36830Y-38100
X36830Y-40640
X36830Y-84455
X38100Y-63500
X39370Y-22860
X39370Y-25400
X39370Y-27940
X39370Y-30480
X39370Y-33020
X39370Y-35560
X39370Y-38100
X39370Y-40640
X39370Y-86995
X40640Y-63500
X41910Y-86995
X45720Y-63500
X45720Y-73025
X45720Y-75565
X45720Y-78105
X46990Y-15240
X46990Y-17780
X46990Y-22860
X46990Y-25400
X46990Y-27940
X46990Y-30480
X46990Y-33020
X46990Y-35560
X46990Y-38100
X46990Y-40640
X46990Y-84455
X48260Y-63500
X49530Y-15240
X49530Y-17780
X49530Y-22860
X49530Y-25400
X49530Y-27940
X49530Y-30480
X49530Y-33020
X49530Y-35560
X49530Y-38100
X49530Y-40640
X52070Y-15240
X52070Y-17780
X52070Y-22860
X52070Y-25400
X52070Y-27940
X52070Y-30480
X52070Y-33020
X52070Y-35560
X52070Y-38100
X52070Y-40640
X52705Y-92075
X52705Y-97155
X54610Y-15240
X54610Y-17780
X54610Y-63500
X57150Y-15240
X57150Y-17780
X57150Y-63500
X57785Y-92075
X57785Y-97155
X59690Y-15240
X59690Y-17780
X59690Y-22860
X59690Y-25400
X59690Y-27940
X59690Y-30480
X59690Y-33020
X59690Y-35560
X59690Y-38100
X59690Y-40640
X62230Y-15240
X62230Y-17780
X62230Y-22860
X62230Y-25400
X62230Y-27940
X62230Y-30480
X62230Y-33020
X62230Y-35560
X62230Y-38100
X62230Y-40640
X62865Y-73025
X62865Y-75565
X62865Y-81280
X62865Y-86360
X62865Y-102870
X62865Y-107950
X63500Y-48895
X63500Y-51435
X63500Y-63500
X65405Y-73025
X65405Y-75565
X66040Y-48895
X66040Y-51435
X66040Y-63500
X67310Y-19050
X67310Y-21590
X67310Y-26670
X67310Y-41910
X67945Y-73025
X67945Y-75565
X67945Y-81280
X67945Y-86360
X67945Y-102870
X67945Y-107950
X68580Y-48895
X68580Y-51435
X69850Y-19050
X69850Y-21590
X69850Y-26670
X69850Y-41910
X71120Y-48895
X71120Y-51435
X72390Y-19050
X72390Y-21590
X72390Y-26670
X72390Y-41910
X72390Y-63500
X73025Y-92075
X73025Y-97155
X73660Y-48895
X73660Y-51435
X74930Y-19050
X74930Y-21590
X74930Y-26670
X74930Y-41910
X74930Y-63500
X76200Y-48895
X76200Y-51435
X77470Y-19050
X77470Y-21590
X77470Y-26670
X77470Y-41910
X78105Y-92075
X78105Y-97155
X78740Y-48895
X78740Y-51435
X80010Y-26670
X80010Y-41910
X81280Y-19050
X81280Y-21590
X81280Y-63500
X82550Y-14605
X82550Y-26670
X82550Y-41910
X83820Y-19050
X83820Y-21590
X83820Y-63500
X85090Y-14605
X85090Y-26670
X85090Y-41910
X86360Y-19050
X86360Y-21590
X86995Y-24130
X87630Y-26670
X87630Y-41910
X88900Y-15240
X89535Y-24130
X90170Y-19050
X90170Y-21590
X90170Y-26670
X90170Y-41910
X90170Y-63500
X91440Y-15240
X92710Y-26670
X92710Y-41910
X92710Y-63500
X93980Y-15240
X95250Y-19050
X95250Y-21590
X95250Y-24130
X95250Y-26670
X95250Y-41910
X97790Y-16510
X97790Y-19050
X97790Y-21590
X97790Y-24130
X97790Y-26670
X97790Y-41910
X99060Y-63500
X100330Y-16510
X100330Y-19050
X100330Y-21590
X100330Y-24130
X100330Y-26670
X100330Y-41910
X101600Y-63500
X102870Y-16510
X102870Y-19050
X102870Y-21590
X102870Y-24130
X102870Y-26670
X102870Y-41910
X105410Y-16510
X105410Y-19050
X105410Y-21590
X105410Y-24130
X105410Y-26670
X105410Y-41910
X106680Y-63500
X107950Y-16510
X107950Y-19050
X107950Y-21590
X107950Y-24130
X107950Y-26670
X107950Y-41910
X109220Y-63500
X110490Y-16510
X110490Y-19050
X110490Y-21590
X110490Y-24130
X110490Y-26670
X110490Y-41910
X113030Y-19050
X113030Y-21590
X113030Y-24130
X113030Y-26670
X113030Y-41910
X114300Y-63500
X114935Y-17780
X114935Y-20320
X114935Y-22860
X115570Y-26670
X115570Y-41910
X116840Y-63500
X117475Y-17780
X117475Y-20320
X117475Y-22860
T3
X23495Y-96520
X23495Y-99060
X30480Y-86995
X33020Y-86995
X35560Y-86995
X36195Y-91440
X36195Y-93980
X39370Y-76835
X39370Y-80645
X41910Y-76835
X41910Y-80645
X44450Y-80645
X67310Y-33020
X67310Y-35560
X67310Y-38100
X85090Y-30480
X87630Y-34290
X90170Y-34290
X95250Y-44450
X97790Y-44450
T4
X22860Y-102235
X24130Y-66675
X27940Y-71120
X36830Y-97155
X38100Y-15875
X46990Y-86995
X68580Y-66675
X115570Y-66675
X116840Y-44450
T5
X24130Y-50800
X52070Y-72390
X52070Y-108585
X68580Y-59055
X78740Y-72390
X78740Y-108585
X115570Y-50800
T0
M30
