G04 (created by PCBNEW (2013-07-07 BZR 4022)-stable) date 2014-10-27 00:18:41*
%MOIN*%
G04 Gerber Fmt 3.4, Leading zero omitted, Abs format*
%FSLAX34Y34*%
G01*
G70*
G90*
G04 APERTURE LIST*
%ADD10C,0.005*%
%ADD11C,0.00393701*%
%ADD12C,0.00787402*%
%ADD13C,0.011811*%
G04 APERTURE END LIST*
G54D10*
G54D11*
X32250Y-44000D02*
X19250Y-44000D01*
X47000Y-18500D02*
X47000Y-27250D01*
X47000Y-5000D02*
X47000Y-18500D01*
X8000Y-27250D02*
X8000Y-27000D01*
X8000Y-41750D02*
X8000Y-27250D01*
X15500Y-41750D02*
X19250Y-41750D01*
X32250Y-44000D02*
X32250Y-27250D01*
X19250Y-44000D02*
X19250Y-43750D01*
X19250Y-35000D02*
X19250Y-44000D01*
X15500Y-41750D02*
X8000Y-41750D01*
X15500Y-41500D02*
X15500Y-41750D01*
X15500Y-35000D02*
X15500Y-41500D01*
X19250Y-35000D02*
X8000Y-35000D01*
X19250Y-27250D02*
X19250Y-35000D01*
X8000Y-18500D02*
X8000Y-27250D01*
X47000Y-5000D02*
X13500Y-5000D01*
X47000Y-27250D02*
X8000Y-27250D01*
X13500Y-18500D02*
X13500Y-5000D01*
X47000Y-18500D02*
X8000Y-18500D01*
G54D12*
X21875Y-15875D02*
X22125Y-16125D01*
X22125Y-15875D02*
X21875Y-16125D01*
X22375Y-16375D02*
X22625Y-16625D01*
X22625Y-16375D02*
X22375Y-16625D01*
X22875Y-12375D02*
X23125Y-12625D01*
X23125Y-12375D02*
X22875Y-12625D01*
X22875Y-13375D02*
X23125Y-13625D01*
X23125Y-13375D02*
X22875Y-13625D01*
X25375Y-6875D02*
X25625Y-7125D01*
X25625Y-6875D02*
X25375Y-7125D01*
X25375Y-16375D02*
X25625Y-16625D01*
X25625Y-16375D02*
X25375Y-16625D01*
X25875Y-5875D02*
X26125Y-6125D01*
X26125Y-5875D02*
X25875Y-6125D01*
X26875Y-6375D02*
X27125Y-6625D01*
X27125Y-6375D02*
X26875Y-6625D01*
X27375Y-6375D02*
X27625Y-6625D01*
X27625Y-6375D02*
X27375Y-6625D01*
X27375Y-11125D02*
X27625Y-11375D01*
X27625Y-11125D02*
X27375Y-11375D01*
X27375Y-13625D02*
X27625Y-13875D01*
X27625Y-13625D02*
X27375Y-13875D01*
X27875Y-6875D02*
X28125Y-7125D01*
X28125Y-6875D02*
X27875Y-7125D01*
X27875Y-14375D02*
X28125Y-14625D01*
X28125Y-14375D02*
X27875Y-14625D01*
X28125Y-13125D02*
X28375Y-13375D01*
X28375Y-13125D02*
X28125Y-13375D01*
X28875Y-14125D02*
X29125Y-14375D01*
X29125Y-14125D02*
X28875Y-14375D01*
X29125Y-17375D02*
X29375Y-17625D01*
X29375Y-17375D02*
X29125Y-17625D01*
X29625Y-13625D02*
X29875Y-13875D01*
X29875Y-13625D02*
X29625Y-13875D01*
X29875Y-11875D02*
X30125Y-12125D01*
X30125Y-11875D02*
X29875Y-12125D01*
X30375Y-6375D02*
X30625Y-6625D01*
X30625Y-6375D02*
X30375Y-6625D01*
X30375Y-14875D02*
X30625Y-15125D01*
X30625Y-14875D02*
X30375Y-15125D01*
X31375Y-6375D02*
X31625Y-6625D01*
X31625Y-6375D02*
X31375Y-6625D01*
X32875Y-6375D02*
X33125Y-6625D01*
X33125Y-6375D02*
X32875Y-6625D01*
X37875Y-15375D02*
X38125Y-15625D01*
X38125Y-15375D02*
X37875Y-15625D01*
X41875Y-15375D02*
X42125Y-15625D01*
X42125Y-15375D02*
X41875Y-15625D01*
X9160Y-25000D02*
G75*
G03X9160Y-25000I-160J0D01*
G74*
G01*
X9410Y-36000D02*
G75*
G03X9410Y-36000I-160J0D01*
G74*
G01*
X9410Y-37000D02*
G75*
G03X9410Y-37000I-160J0D01*
G74*
G01*
X9660Y-28750D02*
G75*
G03X9660Y-28750I-160J0D01*
G74*
G01*
X9660Y-32750D02*
G75*
G03X9660Y-32750I-160J0D01*
G74*
G01*
X10160Y-25000D02*
G75*
G03X10160Y-25000I-160J0D01*
G74*
G01*
X10160Y-33750D02*
G75*
G03X10160Y-33750I-160J0D01*
G74*
G01*
X10410Y-40500D02*
G75*
G03X10410Y-40500I-160J0D01*
G74*
G01*
X10910Y-39500D02*
G75*
G03X10910Y-39500I-160J0D01*
G74*
G01*
X11160Y-29750D02*
G75*
G03X11160Y-29750I-160J0D01*
G74*
G01*
X11160Y-32750D02*
G75*
G03X11160Y-32750I-160J0D01*
G74*
G01*
X11160Y-33750D02*
G75*
G03X11160Y-33750I-160J0D01*
G74*
G01*
X11410Y-40500D02*
G75*
G03X11410Y-40500I-160J0D01*
G74*
G01*
X11910Y-38500D02*
G75*
G03X11910Y-38500I-160J0D01*
G74*
G01*
X11910Y-39500D02*
G75*
G03X11910Y-39500I-160J0D01*
G74*
G01*
X12160Y-25000D02*
G75*
G03X12160Y-25000I-160J0D01*
G74*
G01*
X12160Y-28750D02*
G75*
G03X12160Y-28750I-160J0D01*
G74*
G01*
X12160Y-29750D02*
G75*
G03X12160Y-29750I-160J0D01*
G74*
G01*
X12160Y-32750D02*
G75*
G03X12160Y-32750I-160J0D01*
G74*
G01*
X12410Y-40500D02*
G75*
G03X12410Y-40500I-160J0D01*
G74*
G01*
X13160Y-25000D02*
G75*
G03X13160Y-25000I-160J0D01*
G74*
G01*
X13160Y-28750D02*
G75*
G03X13160Y-28750I-160J0D01*
G74*
G01*
X13160Y-29750D02*
G75*
G03X13160Y-29750I-160J0D01*
G74*
G01*
X13160Y-32750D02*
G75*
G03X13160Y-32750I-160J0D01*
G74*
G01*
X13410Y-36000D02*
G75*
G03X13410Y-36000I-160J0D01*
G74*
G01*
X13410Y-37000D02*
G75*
G03X13410Y-37000I-160J0D01*
G74*
G01*
X13410Y-38500D02*
G75*
G03X13410Y-38500I-160J0D01*
G74*
G01*
X13410Y-39500D02*
G75*
G03X13410Y-39500I-160J0D01*
G74*
G01*
X13410Y-40500D02*
G75*
G03X13410Y-40500I-160J0D01*
G74*
G01*
X14160Y-28750D02*
G75*
G03X14160Y-28750I-160J0D01*
G74*
G01*
X14160Y-29750D02*
G75*
G03X14160Y-29750I-160J0D01*
G74*
G01*
X14160Y-32750D02*
G75*
G03X14160Y-32750I-160J0D01*
G74*
G01*
X14660Y-9000D02*
G75*
G03X14660Y-9000I-160J0D01*
G74*
G01*
X14660Y-10000D02*
G75*
G03X14660Y-10000I-160J0D01*
G74*
G01*
X14660Y-11000D02*
G75*
G03X14660Y-11000I-160J0D01*
G74*
G01*
X14660Y-12000D02*
G75*
G03X14660Y-12000I-160J0D01*
G74*
G01*
X14660Y-13000D02*
G75*
G03X14660Y-13000I-160J0D01*
G74*
G01*
X14660Y-14000D02*
G75*
G03X14660Y-14000I-160J0D01*
G74*
G01*
X14660Y-15000D02*
G75*
G03X14660Y-15000I-160J0D01*
G74*
G01*
X14660Y-16000D02*
G75*
G03X14660Y-16000I-160J0D01*
G74*
G01*
X14660Y-33250D02*
G75*
G03X14660Y-33250I-160J0D01*
G74*
G01*
X15160Y-25000D02*
G75*
G03X15160Y-25000I-160J0D01*
G74*
G01*
X15660Y-9000D02*
G75*
G03X15660Y-9000I-160J0D01*
G74*
G01*
X15660Y-10000D02*
G75*
G03X15660Y-10000I-160J0D01*
G74*
G01*
X15660Y-11000D02*
G75*
G03X15660Y-11000I-160J0D01*
G74*
G01*
X15660Y-12000D02*
G75*
G03X15660Y-12000I-160J0D01*
G74*
G01*
X15660Y-13000D02*
G75*
G03X15660Y-13000I-160J0D01*
G74*
G01*
X15660Y-14000D02*
G75*
G03X15660Y-14000I-160J0D01*
G74*
G01*
X15660Y-15000D02*
G75*
G03X15660Y-15000I-160J0D01*
G74*
G01*
X15660Y-16000D02*
G75*
G03X15660Y-16000I-160J0D01*
G74*
G01*
X15660Y-34250D02*
G75*
G03X15660Y-34250I-160J0D01*
G74*
G01*
X16160Y-25000D02*
G75*
G03X16160Y-25000I-160J0D01*
G74*
G01*
X16660Y-34250D02*
G75*
G03X16660Y-34250I-160J0D01*
G74*
G01*
X18160Y-25000D02*
G75*
G03X18160Y-25000I-160J0D01*
G74*
G01*
X18160Y-28750D02*
G75*
G03X18160Y-28750I-160J0D01*
G74*
G01*
X18160Y-29750D02*
G75*
G03X18160Y-29750I-160J0D01*
G74*
G01*
X18160Y-30750D02*
G75*
G03X18160Y-30750I-160J0D01*
G74*
G01*
X18660Y-6000D02*
G75*
G03X18660Y-6000I-160J0D01*
G74*
G01*
X18660Y-7000D02*
G75*
G03X18660Y-7000I-160J0D01*
G74*
G01*
X18660Y-9000D02*
G75*
G03X18660Y-9000I-160J0D01*
G74*
G01*
X18660Y-10000D02*
G75*
G03X18660Y-10000I-160J0D01*
G74*
G01*
X18660Y-11000D02*
G75*
G03X18660Y-11000I-160J0D01*
G74*
G01*
X18660Y-12000D02*
G75*
G03X18660Y-12000I-160J0D01*
G74*
G01*
X18660Y-13000D02*
G75*
G03X18660Y-13000I-160J0D01*
G74*
G01*
X18660Y-14000D02*
G75*
G03X18660Y-14000I-160J0D01*
G74*
G01*
X18660Y-15000D02*
G75*
G03X18660Y-15000I-160J0D01*
G74*
G01*
X18660Y-16000D02*
G75*
G03X18660Y-16000I-160J0D01*
G74*
G01*
X18660Y-33250D02*
G75*
G03X18660Y-33250I-160J0D01*
G74*
G01*
X19160Y-25000D02*
G75*
G03X19160Y-25000I-160J0D01*
G74*
G01*
X19660Y-6000D02*
G75*
G03X19660Y-6000I-160J0D01*
G74*
G01*
X19660Y-7000D02*
G75*
G03X19660Y-7000I-160J0D01*
G74*
G01*
X19660Y-9000D02*
G75*
G03X19660Y-9000I-160J0D01*
G74*
G01*
X19660Y-10000D02*
G75*
G03X19660Y-10000I-160J0D01*
G74*
G01*
X19660Y-11000D02*
G75*
G03X19660Y-11000I-160J0D01*
G74*
G01*
X19660Y-12000D02*
G75*
G03X19660Y-12000I-160J0D01*
G74*
G01*
X19660Y-13000D02*
G75*
G03X19660Y-13000I-160J0D01*
G74*
G01*
X19660Y-14000D02*
G75*
G03X19660Y-14000I-160J0D01*
G74*
G01*
X19660Y-15000D02*
G75*
G03X19660Y-15000I-160J0D01*
G74*
G01*
X19660Y-16000D02*
G75*
G03X19660Y-16000I-160J0D01*
G74*
G01*
X20660Y-6000D02*
G75*
G03X20660Y-6000I-160J0D01*
G74*
G01*
X20660Y-7000D02*
G75*
G03X20660Y-7000I-160J0D01*
G74*
G01*
X20660Y-9000D02*
G75*
G03X20660Y-9000I-160J0D01*
G74*
G01*
X20660Y-10000D02*
G75*
G03X20660Y-10000I-160J0D01*
G74*
G01*
X20660Y-11000D02*
G75*
G03X20660Y-11000I-160J0D01*
G74*
G01*
X20660Y-12000D02*
G75*
G03X20660Y-12000I-160J0D01*
G74*
G01*
X20660Y-13000D02*
G75*
G03X20660Y-13000I-160J0D01*
G74*
G01*
X20660Y-14000D02*
G75*
G03X20660Y-14000I-160J0D01*
G74*
G01*
X20660Y-15000D02*
G75*
G03X20660Y-15000I-160J0D01*
G74*
G01*
X20660Y-16000D02*
G75*
G03X20660Y-16000I-160J0D01*
G74*
G01*
X20910Y-36250D02*
G75*
G03X20910Y-36250I-160J0D01*
G74*
G01*
X20910Y-38250D02*
G75*
G03X20910Y-38250I-160J0D01*
G74*
G01*
X21660Y-6000D02*
G75*
G03X21660Y-6000I-160J0D01*
G74*
G01*
X21660Y-7000D02*
G75*
G03X21660Y-7000I-160J0D01*
G74*
G01*
X21660Y-25000D02*
G75*
G03X21660Y-25000I-160J0D01*
G74*
G01*
X22660Y-6000D02*
G75*
G03X22660Y-6000I-160J0D01*
G74*
G01*
X22660Y-7000D02*
G75*
G03X22660Y-7000I-160J0D01*
G74*
G01*
X22660Y-25000D02*
G75*
G03X22660Y-25000I-160J0D01*
G74*
G01*
X22910Y-36250D02*
G75*
G03X22910Y-36250I-160J0D01*
G74*
G01*
X22910Y-38250D02*
G75*
G03X22910Y-38250I-160J0D01*
G74*
G01*
X23660Y-6000D02*
G75*
G03X23660Y-6000I-160J0D01*
G74*
G01*
X23660Y-7000D02*
G75*
G03X23660Y-7000I-160J0D01*
G74*
G01*
X23660Y-9000D02*
G75*
G03X23660Y-9000I-160J0D01*
G74*
G01*
X23660Y-10000D02*
G75*
G03X23660Y-10000I-160J0D01*
G74*
G01*
X23660Y-11000D02*
G75*
G03X23660Y-11000I-160J0D01*
G74*
G01*
X23660Y-12000D02*
G75*
G03X23660Y-12000I-160J0D01*
G74*
G01*
X23660Y-13000D02*
G75*
G03X23660Y-13000I-160J0D01*
G74*
G01*
X23660Y-14000D02*
G75*
G03X23660Y-14000I-160J0D01*
G74*
G01*
X23660Y-15000D02*
G75*
G03X23660Y-15000I-160J0D01*
G74*
G01*
X23660Y-16000D02*
G75*
G03X23660Y-16000I-160J0D01*
G74*
G01*
X24660Y-6000D02*
G75*
G03X24660Y-6000I-160J0D01*
G74*
G01*
X24660Y-7000D02*
G75*
G03X24660Y-7000I-160J0D01*
G74*
G01*
X24660Y-9000D02*
G75*
G03X24660Y-9000I-160J0D01*
G74*
G01*
X24660Y-10000D02*
G75*
G03X24660Y-10000I-160J0D01*
G74*
G01*
X24660Y-11000D02*
G75*
G03X24660Y-11000I-160J0D01*
G74*
G01*
X24660Y-12000D02*
G75*
G03X24660Y-12000I-160J0D01*
G74*
G01*
X24660Y-13000D02*
G75*
G03X24660Y-13000I-160J0D01*
G74*
G01*
X24660Y-14000D02*
G75*
G03X24660Y-14000I-160J0D01*
G74*
G01*
X24660Y-15000D02*
G75*
G03X24660Y-15000I-160J0D01*
G74*
G01*
X24660Y-16000D02*
G75*
G03X24660Y-16000I-160J0D01*
G74*
G01*
X24910Y-28750D02*
G75*
G03X24910Y-28750I-160J0D01*
G74*
G01*
X24910Y-29750D02*
G75*
G03X24910Y-29750I-160J0D01*
G74*
G01*
X24910Y-32000D02*
G75*
G03X24910Y-32000I-160J0D01*
G74*
G01*
X24910Y-34000D02*
G75*
G03X24910Y-34000I-160J0D01*
G74*
G01*
X24910Y-40500D02*
G75*
G03X24910Y-40500I-160J0D01*
G74*
G01*
X24910Y-42500D02*
G75*
G03X24910Y-42500I-160J0D01*
G74*
G01*
X25160Y-19250D02*
G75*
G03X25160Y-19250I-160J0D01*
G74*
G01*
X25160Y-20250D02*
G75*
G03X25160Y-20250I-160J0D01*
G74*
G01*
X25160Y-25000D02*
G75*
G03X25160Y-25000I-160J0D01*
G74*
G01*
X25910Y-28750D02*
G75*
G03X25910Y-28750I-160J0D01*
G74*
G01*
X25910Y-29750D02*
G75*
G03X25910Y-29750I-160J0D01*
G74*
G01*
X26160Y-19250D02*
G75*
G03X26160Y-19250I-160J0D01*
G74*
G01*
X26160Y-20250D02*
G75*
G03X26160Y-20250I-160J0D01*
G74*
G01*
X26160Y-25000D02*
G75*
G03X26160Y-25000I-160J0D01*
G74*
G01*
X26660Y-7500D02*
G75*
G03X26660Y-7500I-160J0D01*
G74*
G01*
X26660Y-8500D02*
G75*
G03X26660Y-8500I-160J0D01*
G74*
G01*
X26660Y-10500D02*
G75*
G03X26660Y-10500I-160J0D01*
G74*
G01*
X26660Y-16500D02*
G75*
G03X26660Y-16500I-160J0D01*
G74*
G01*
X26910Y-28750D02*
G75*
G03X26910Y-28750I-160J0D01*
G74*
G01*
X26910Y-29750D02*
G75*
G03X26910Y-29750I-160J0D01*
G74*
G01*
X26910Y-32000D02*
G75*
G03X26910Y-32000I-160J0D01*
G74*
G01*
X26910Y-34000D02*
G75*
G03X26910Y-34000I-160J0D01*
G74*
G01*
X26910Y-40500D02*
G75*
G03X26910Y-40500I-160J0D01*
G74*
G01*
X26910Y-42500D02*
G75*
G03X26910Y-42500I-160J0D01*
G74*
G01*
X27160Y-19250D02*
G75*
G03X27160Y-19250I-160J0D01*
G74*
G01*
X27160Y-20250D02*
G75*
G03X27160Y-20250I-160J0D01*
G74*
G01*
X27660Y-7500D02*
G75*
G03X27660Y-7500I-160J0D01*
G74*
G01*
X27660Y-8500D02*
G75*
G03X27660Y-8500I-160J0D01*
G74*
G01*
X27660Y-10500D02*
G75*
G03X27660Y-10500I-160J0D01*
G74*
G01*
X27660Y-16500D02*
G75*
G03X27660Y-16500I-160J0D01*
G74*
G01*
X28160Y-19250D02*
G75*
G03X28160Y-19250I-160J0D01*
G74*
G01*
X28160Y-20250D02*
G75*
G03X28160Y-20250I-160J0D01*
G74*
G01*
X28660Y-7500D02*
G75*
G03X28660Y-7500I-160J0D01*
G74*
G01*
X28660Y-8500D02*
G75*
G03X28660Y-8500I-160J0D01*
G74*
G01*
X28660Y-10500D02*
G75*
G03X28660Y-10500I-160J0D01*
G74*
G01*
X28660Y-16500D02*
G75*
G03X28660Y-16500I-160J0D01*
G74*
G01*
X28660Y-25000D02*
G75*
G03X28660Y-25000I-160J0D01*
G74*
G01*
X28910Y-36250D02*
G75*
G03X28910Y-36250I-160J0D01*
G74*
G01*
X28910Y-38250D02*
G75*
G03X28910Y-38250I-160J0D01*
G74*
G01*
X29160Y-19250D02*
G75*
G03X29160Y-19250I-160J0D01*
G74*
G01*
X29160Y-20250D02*
G75*
G03X29160Y-20250I-160J0D01*
G74*
G01*
X29660Y-7500D02*
G75*
G03X29660Y-7500I-160J0D01*
G74*
G01*
X29660Y-8500D02*
G75*
G03X29660Y-8500I-160J0D01*
G74*
G01*
X29660Y-10500D02*
G75*
G03X29660Y-10500I-160J0D01*
G74*
G01*
X29660Y-16500D02*
G75*
G03X29660Y-16500I-160J0D01*
G74*
G01*
X29660Y-25000D02*
G75*
G03X29660Y-25000I-160J0D01*
G74*
G01*
X30160Y-19250D02*
G75*
G03X30160Y-19250I-160J0D01*
G74*
G01*
X30160Y-20250D02*
G75*
G03X30160Y-20250I-160J0D01*
G74*
G01*
X30660Y-7500D02*
G75*
G03X30660Y-7500I-160J0D01*
G74*
G01*
X30660Y-8500D02*
G75*
G03X30660Y-8500I-160J0D01*
G74*
G01*
X30660Y-10500D02*
G75*
G03X30660Y-10500I-160J0D01*
G74*
G01*
X30660Y-16500D02*
G75*
G03X30660Y-16500I-160J0D01*
G74*
G01*
X30910Y-36250D02*
G75*
G03X30910Y-36250I-160J0D01*
G74*
G01*
X30910Y-38250D02*
G75*
G03X30910Y-38250I-160J0D01*
G74*
G01*
X31160Y-19250D02*
G75*
G03X31160Y-19250I-160J0D01*
G74*
G01*
X31160Y-20250D02*
G75*
G03X31160Y-20250I-160J0D01*
G74*
G01*
X31660Y-10500D02*
G75*
G03X31660Y-10500I-160J0D01*
G74*
G01*
X31660Y-16500D02*
G75*
G03X31660Y-16500I-160J0D01*
G74*
G01*
X32160Y-7500D02*
G75*
G03X32160Y-7500I-160J0D01*
G74*
G01*
X32160Y-8500D02*
G75*
G03X32160Y-8500I-160J0D01*
G74*
G01*
X32160Y-25000D02*
G75*
G03X32160Y-25000I-160J0D01*
G74*
G01*
X32660Y-5750D02*
G75*
G03X32660Y-5750I-160J0D01*
G74*
G01*
X32660Y-10500D02*
G75*
G03X32660Y-10500I-160J0D01*
G74*
G01*
X32660Y-16500D02*
G75*
G03X32660Y-16500I-160J0D01*
G74*
G01*
X33160Y-7500D02*
G75*
G03X33160Y-7500I-160J0D01*
G74*
G01*
X33160Y-8500D02*
G75*
G03X33160Y-8500I-160J0D01*
G74*
G01*
X33160Y-25000D02*
G75*
G03X33160Y-25000I-160J0D01*
G74*
G01*
X33660Y-5750D02*
G75*
G03X33660Y-5750I-160J0D01*
G74*
G01*
X33660Y-10500D02*
G75*
G03X33660Y-10500I-160J0D01*
G74*
G01*
X33660Y-16500D02*
G75*
G03X33660Y-16500I-160J0D01*
G74*
G01*
X34160Y-7500D02*
G75*
G03X34160Y-7500I-160J0D01*
G74*
G01*
X34160Y-8500D02*
G75*
G03X34160Y-8500I-160J0D01*
G74*
G01*
X34410Y-9500D02*
G75*
G03X34410Y-9500I-160J0D01*
G74*
G01*
X34660Y-10500D02*
G75*
G03X34660Y-10500I-160J0D01*
G74*
G01*
X34660Y-16500D02*
G75*
G03X34660Y-16500I-160J0D01*
G74*
G01*
X35160Y-6000D02*
G75*
G03X35160Y-6000I-160J0D01*
G74*
G01*
X35410Y-9500D02*
G75*
G03X35410Y-9500I-160J0D01*
G74*
G01*
X35660Y-7500D02*
G75*
G03X35660Y-7500I-160J0D01*
G74*
G01*
X35660Y-8500D02*
G75*
G03X35660Y-8500I-160J0D01*
G74*
G01*
X35660Y-10500D02*
G75*
G03X35660Y-10500I-160J0D01*
G74*
G01*
X35660Y-16500D02*
G75*
G03X35660Y-16500I-160J0D01*
G74*
G01*
X35660Y-25000D02*
G75*
G03X35660Y-25000I-160J0D01*
G74*
G01*
X36160Y-6000D02*
G75*
G03X36160Y-6000I-160J0D01*
G74*
G01*
X36660Y-10500D02*
G75*
G03X36660Y-10500I-160J0D01*
G74*
G01*
X36660Y-16500D02*
G75*
G03X36660Y-16500I-160J0D01*
G74*
G01*
X36660Y-25000D02*
G75*
G03X36660Y-25000I-160J0D01*
G74*
G01*
X37160Y-6000D02*
G75*
G03X37160Y-6000I-160J0D01*
G74*
G01*
X37660Y-7500D02*
G75*
G03X37660Y-7500I-160J0D01*
G74*
G01*
X37660Y-8500D02*
G75*
G03X37660Y-8500I-160J0D01*
G74*
G01*
X37660Y-9500D02*
G75*
G03X37660Y-9500I-160J0D01*
G74*
G01*
X37660Y-10500D02*
G75*
G03X37660Y-10500I-160J0D01*
G74*
G01*
X37660Y-16500D02*
G75*
G03X37660Y-16500I-160J0D01*
G74*
G01*
X38660Y-6500D02*
G75*
G03X38660Y-6500I-160J0D01*
G74*
G01*
X38660Y-7500D02*
G75*
G03X38660Y-7500I-160J0D01*
G74*
G01*
X38660Y-8500D02*
G75*
G03X38660Y-8500I-160J0D01*
G74*
G01*
X38660Y-9500D02*
G75*
G03X38660Y-9500I-160J0D01*
G74*
G01*
X38660Y-10500D02*
G75*
G03X38660Y-10500I-160J0D01*
G74*
G01*
X38660Y-16500D02*
G75*
G03X38660Y-16500I-160J0D01*
G74*
G01*
X39160Y-25000D02*
G75*
G03X39160Y-25000I-160J0D01*
G74*
G01*
X39660Y-6500D02*
G75*
G03X39660Y-6500I-160J0D01*
G74*
G01*
X39660Y-7500D02*
G75*
G03X39660Y-7500I-160J0D01*
G74*
G01*
X39660Y-8500D02*
G75*
G03X39660Y-8500I-160J0D01*
G74*
G01*
X39660Y-9500D02*
G75*
G03X39660Y-9500I-160J0D01*
G74*
G01*
X39660Y-10500D02*
G75*
G03X39660Y-10500I-160J0D01*
G74*
G01*
X39660Y-16500D02*
G75*
G03X39660Y-16500I-160J0D01*
G74*
G01*
X40160Y-25000D02*
G75*
G03X40160Y-25000I-160J0D01*
G74*
G01*
X40660Y-6500D02*
G75*
G03X40660Y-6500I-160J0D01*
G74*
G01*
X40660Y-7500D02*
G75*
G03X40660Y-7500I-160J0D01*
G74*
G01*
X40660Y-8500D02*
G75*
G03X40660Y-8500I-160J0D01*
G74*
G01*
X40660Y-9500D02*
G75*
G03X40660Y-9500I-160J0D01*
G74*
G01*
X40660Y-10500D02*
G75*
G03X40660Y-10500I-160J0D01*
G74*
G01*
X40660Y-16500D02*
G75*
G03X40660Y-16500I-160J0D01*
G74*
G01*
X41660Y-6500D02*
G75*
G03X41660Y-6500I-160J0D01*
G74*
G01*
X41660Y-7500D02*
G75*
G03X41660Y-7500I-160J0D01*
G74*
G01*
X41660Y-8500D02*
G75*
G03X41660Y-8500I-160J0D01*
G74*
G01*
X41660Y-9500D02*
G75*
G03X41660Y-9500I-160J0D01*
G74*
G01*
X41660Y-10500D02*
G75*
G03X41660Y-10500I-160J0D01*
G74*
G01*
X41660Y-16500D02*
G75*
G03X41660Y-16500I-160J0D01*
G74*
G01*
X42160Y-25000D02*
G75*
G03X42160Y-25000I-160J0D01*
G74*
G01*
X42660Y-6500D02*
G75*
G03X42660Y-6500I-160J0D01*
G74*
G01*
X42660Y-7500D02*
G75*
G03X42660Y-7500I-160J0D01*
G74*
G01*
X42660Y-8500D02*
G75*
G03X42660Y-8500I-160J0D01*
G74*
G01*
X42660Y-9500D02*
G75*
G03X42660Y-9500I-160J0D01*
G74*
G01*
X42660Y-10500D02*
G75*
G03X42660Y-10500I-160J0D01*
G74*
G01*
X42660Y-16500D02*
G75*
G03X42660Y-16500I-160J0D01*
G74*
G01*
X43160Y-25000D02*
G75*
G03X43160Y-25000I-160J0D01*
G74*
G01*
X43660Y-6500D02*
G75*
G03X43660Y-6500I-160J0D01*
G74*
G01*
X43660Y-7500D02*
G75*
G03X43660Y-7500I-160J0D01*
G74*
G01*
X43660Y-8500D02*
G75*
G03X43660Y-8500I-160J0D01*
G74*
G01*
X43660Y-9500D02*
G75*
G03X43660Y-9500I-160J0D01*
G74*
G01*
X43660Y-10500D02*
G75*
G03X43660Y-10500I-160J0D01*
G74*
G01*
X43660Y-16500D02*
G75*
G03X43660Y-16500I-160J0D01*
G74*
G01*
X44660Y-7500D02*
G75*
G03X44660Y-7500I-160J0D01*
G74*
G01*
X44660Y-8500D02*
G75*
G03X44660Y-8500I-160J0D01*
G74*
G01*
X44660Y-9500D02*
G75*
G03X44660Y-9500I-160J0D01*
G74*
G01*
X44660Y-10500D02*
G75*
G03X44660Y-10500I-160J0D01*
G74*
G01*
X44660Y-16500D02*
G75*
G03X44660Y-16500I-160J0D01*
G74*
G01*
X45160Y-25000D02*
G75*
G03X45160Y-25000I-160J0D01*
G74*
G01*
X45410Y-7000D02*
G75*
G03X45410Y-7000I-160J0D01*
G74*
G01*
X45410Y-8000D02*
G75*
G03X45410Y-8000I-160J0D01*
G74*
G01*
X45410Y-9000D02*
G75*
G03X45410Y-9000I-160J0D01*
G74*
G01*
X45660Y-10500D02*
G75*
G03X45660Y-10500I-160J0D01*
G74*
G01*
X45660Y-16500D02*
G75*
G03X45660Y-16500I-160J0D01*
G74*
G01*
X46160Y-25000D02*
G75*
G03X46160Y-25000I-160J0D01*
G74*
G01*
X46410Y-7000D02*
G75*
G03X46410Y-7000I-160J0D01*
G74*
G01*
X46410Y-8000D02*
G75*
G03X46410Y-8000I-160J0D01*
G74*
G01*
X46410Y-9000D02*
G75*
G03X46410Y-9000I-160J0D01*
G74*
G01*
X9250Y-37800D02*
X9250Y-38200D01*
X9050Y-38000D02*
X9450Y-38000D01*
X9250Y-38800D02*
X9250Y-39200D01*
X9050Y-39000D02*
X9450Y-39000D01*
X12000Y-34050D02*
X12000Y-34450D01*
X11800Y-34250D02*
X12200Y-34250D01*
X13000Y-34050D02*
X13000Y-34450D01*
X12800Y-34250D02*
X13200Y-34250D01*
X14000Y-34050D02*
X14000Y-34450D01*
X13800Y-34250D02*
X14200Y-34250D01*
X14250Y-35800D02*
X14250Y-36200D01*
X14050Y-36000D02*
X14450Y-36000D01*
X14250Y-36800D02*
X14250Y-37200D01*
X14050Y-37000D02*
X14450Y-37000D01*
X15500Y-30050D02*
X15500Y-30450D01*
X15300Y-30250D02*
X15700Y-30250D01*
X15500Y-31550D02*
X15500Y-31950D01*
X15300Y-31750D02*
X15700Y-31750D01*
X16500Y-30050D02*
X16500Y-30450D01*
X16300Y-30250D02*
X16700Y-30250D01*
X16500Y-31550D02*
X16500Y-31950D01*
X16300Y-31750D02*
X16700Y-31750D01*
X17500Y-31550D02*
X17500Y-31950D01*
X17300Y-31750D02*
X17700Y-31750D01*
X26500Y-12800D02*
X26500Y-13200D01*
X26300Y-13000D02*
X26700Y-13000D01*
X26500Y-13800D02*
X26500Y-14200D01*
X26300Y-14000D02*
X26700Y-14000D01*
X26500Y-14800D02*
X26500Y-15200D01*
X26300Y-15000D02*
X26700Y-15000D01*
X33500Y-11800D02*
X33500Y-12200D01*
X33300Y-12000D02*
X33700Y-12000D01*
X34500Y-13300D02*
X34500Y-13700D01*
X34300Y-13500D02*
X34700Y-13500D01*
X35500Y-13300D02*
X35500Y-13700D01*
X35300Y-13500D02*
X35700Y-13500D01*
X37500Y-17300D02*
X37500Y-17700D01*
X37300Y-17500D02*
X37700Y-17500D01*
X38500Y-17300D02*
X38500Y-17700D01*
X38300Y-17500D02*
X38700Y-17500D01*
X9347Y-40597D02*
X9347Y-39902D01*
X8652Y-39902D01*
X8652Y-40597D01*
X9347Y-40597D01*
X9847Y-26597D02*
X9847Y-25902D01*
X9152Y-25902D01*
X9152Y-26597D01*
X9847Y-26597D01*
X11347Y-28347D02*
X11347Y-27652D01*
X10652Y-27652D01*
X10652Y-28347D01*
X11347Y-28347D01*
X14847Y-38597D02*
X14847Y-37902D01*
X14152Y-37902D01*
X14152Y-38597D01*
X14847Y-38597D01*
X15347Y-6597D02*
X15347Y-5902D01*
X14652Y-5902D01*
X14652Y-6597D01*
X15347Y-6597D01*
X18847Y-34597D02*
X18847Y-33902D01*
X18152Y-33902D01*
X18152Y-34597D01*
X18847Y-34597D01*
X27347Y-26597D02*
X27347Y-25902D01*
X26652Y-25902D01*
X26652Y-26597D01*
X27347Y-26597D01*
X45847Y-26597D02*
X45847Y-25902D01*
X45152Y-25902D01*
X45152Y-26597D01*
X45847Y-26597D01*
X46347Y-17847D02*
X46347Y-17152D01*
X45652Y-17152D01*
X45652Y-17847D01*
X46347Y-17847D01*
X9500Y-20590D02*
X10090Y-20000D01*
X9500Y-19409D01*
X8909Y-20000D01*
X9500Y-20590D01*
X20500Y-29090D02*
X21090Y-28500D01*
X20500Y-27909D01*
X19909Y-28500D01*
X20500Y-29090D01*
X20500Y-43340D02*
X21090Y-42750D01*
X20500Y-42159D01*
X19909Y-42750D01*
X20500Y-43340D01*
X27000Y-23840D02*
X27590Y-23250D01*
X27000Y-22659D01*
X26409Y-23250D01*
X27000Y-23840D01*
X31000Y-29090D02*
X31590Y-28500D01*
X31000Y-27909D01*
X30409Y-28500D01*
X31000Y-29090D01*
X31000Y-43340D02*
X31590Y-42750D01*
X31000Y-42159D01*
X30409Y-42750D01*
X31000Y-43340D01*
X45500Y-20590D02*
X46090Y-20000D01*
X45500Y-19409D01*
X44909Y-20000D01*
X45500Y-20590D01*
G54D13*
X9048Y-45796D02*
X9048Y-44615D01*
X9330Y-44615D01*
X9498Y-44672D01*
X9611Y-44784D01*
X9667Y-44897D01*
X9723Y-45122D01*
X9723Y-45290D01*
X9667Y-45515D01*
X9611Y-45628D01*
X9498Y-45740D01*
X9330Y-45796D01*
X9048Y-45796D01*
X10230Y-45796D02*
X10230Y-45009D01*
X10230Y-45234D02*
X10286Y-45122D01*
X10342Y-45065D01*
X10455Y-45009D01*
X10567Y-45009D01*
X10961Y-45796D02*
X10961Y-45009D01*
X10961Y-44615D02*
X10904Y-44672D01*
X10961Y-44728D01*
X11017Y-44672D01*
X10961Y-44615D01*
X10961Y-44728D01*
X11692Y-45796D02*
X11579Y-45740D01*
X11523Y-45628D01*
X11523Y-44615D01*
X12311Y-45796D02*
X12198Y-45740D01*
X12142Y-45628D01*
X12142Y-44615D01*
X13660Y-45796D02*
X13660Y-44615D01*
X14054Y-45459D01*
X14448Y-44615D01*
X14448Y-45796D01*
X15516Y-45796D02*
X15516Y-45178D01*
X15460Y-45065D01*
X15348Y-45009D01*
X15123Y-45009D01*
X15010Y-45065D01*
X15516Y-45740D02*
X15404Y-45796D01*
X15123Y-45796D01*
X15010Y-45740D01*
X14954Y-45628D01*
X14954Y-45515D01*
X15010Y-45403D01*
X15123Y-45347D01*
X15404Y-45347D01*
X15516Y-45290D01*
X16079Y-45009D02*
X16079Y-46190D01*
X16079Y-45065D02*
X16191Y-45009D01*
X16416Y-45009D01*
X16529Y-45065D01*
X16585Y-45122D01*
X16641Y-45234D01*
X16641Y-45571D01*
X16585Y-45684D01*
X16529Y-45740D01*
X16416Y-45796D01*
X16191Y-45796D01*
X16079Y-45740D01*
X17147Y-45684D02*
X17204Y-45740D01*
X17147Y-45796D01*
X17091Y-45740D01*
X17147Y-45684D01*
X17147Y-45796D01*
X17147Y-45065D02*
X17204Y-45122D01*
X17147Y-45178D01*
X17091Y-45122D01*
X17147Y-45065D01*
X17147Y-45178D01*
X7730Y-47674D02*
X7980Y-47924D01*
X7980Y-47674D02*
X7730Y-47924D01*
X9273Y-47096D02*
X9386Y-47096D01*
X9498Y-47152D01*
X9555Y-47208D01*
X9611Y-47321D01*
X9667Y-47546D01*
X9667Y-47827D01*
X9611Y-48052D01*
X9555Y-48164D01*
X9498Y-48221D01*
X9386Y-48277D01*
X9273Y-48277D01*
X9161Y-48221D01*
X9105Y-48164D01*
X9048Y-48052D01*
X8992Y-47827D01*
X8992Y-47546D01*
X9048Y-47321D01*
X9105Y-47208D01*
X9161Y-47152D01*
X9273Y-47096D01*
X10173Y-48164D02*
X10230Y-48221D01*
X10173Y-48277D01*
X10117Y-48221D01*
X10173Y-48164D01*
X10173Y-48277D01*
X11242Y-47096D02*
X11017Y-47096D01*
X10904Y-47152D01*
X10848Y-47208D01*
X10736Y-47377D01*
X10679Y-47602D01*
X10679Y-48052D01*
X10736Y-48164D01*
X10792Y-48221D01*
X10904Y-48277D01*
X11129Y-48277D01*
X11242Y-48221D01*
X11298Y-48164D01*
X11354Y-48052D01*
X11354Y-47771D01*
X11298Y-47658D01*
X11242Y-47602D01*
X11129Y-47546D01*
X10904Y-47546D01*
X10792Y-47602D01*
X10736Y-47658D01*
X10679Y-47771D01*
X12367Y-47489D02*
X12367Y-48277D01*
X12086Y-47039D02*
X11804Y-47883D01*
X12535Y-47883D01*
X12985Y-48277D02*
X12985Y-47489D01*
X12985Y-47602D02*
X13042Y-47546D01*
X13154Y-47489D01*
X13323Y-47489D01*
X13435Y-47546D01*
X13492Y-47658D01*
X13492Y-48277D01*
X13492Y-47658D02*
X13548Y-47546D01*
X13660Y-47489D01*
X13829Y-47489D01*
X13942Y-47546D01*
X13998Y-47658D01*
X13998Y-48277D01*
X14560Y-48277D02*
X14560Y-47489D01*
X14560Y-47602D02*
X14616Y-47546D01*
X14729Y-47489D01*
X14898Y-47489D01*
X15010Y-47546D01*
X15066Y-47658D01*
X15066Y-48277D01*
X15066Y-47658D02*
X15123Y-47546D01*
X15235Y-47489D01*
X15404Y-47489D01*
X15516Y-47546D01*
X15573Y-47658D01*
X15573Y-48277D01*
X17879Y-47039D02*
X16866Y-48558D01*
X19397Y-47096D02*
X19510Y-47096D01*
X19622Y-47152D01*
X19678Y-47208D01*
X19735Y-47321D01*
X19791Y-47546D01*
X19791Y-47827D01*
X19735Y-48052D01*
X19678Y-48164D01*
X19622Y-48221D01*
X19510Y-48277D01*
X19397Y-48277D01*
X19285Y-48221D01*
X19228Y-48164D01*
X19172Y-48052D01*
X19116Y-47827D01*
X19116Y-47546D01*
X19172Y-47321D01*
X19228Y-47208D01*
X19285Y-47152D01*
X19397Y-47096D01*
X20297Y-48164D02*
X20353Y-48221D01*
X20297Y-48277D01*
X20241Y-48221D01*
X20297Y-48164D01*
X20297Y-48277D01*
X21084Y-47096D02*
X21197Y-47096D01*
X21309Y-47152D01*
X21366Y-47208D01*
X21422Y-47321D01*
X21478Y-47546D01*
X21478Y-47827D01*
X21422Y-48052D01*
X21366Y-48164D01*
X21309Y-48221D01*
X21197Y-48277D01*
X21084Y-48277D01*
X20972Y-48221D01*
X20916Y-48164D01*
X20859Y-48052D01*
X20803Y-47827D01*
X20803Y-47546D01*
X20859Y-47321D01*
X20916Y-47208D01*
X20972Y-47152D01*
X21084Y-47096D01*
X21928Y-47208D02*
X21984Y-47152D01*
X22097Y-47096D01*
X22378Y-47096D01*
X22491Y-47152D01*
X22547Y-47208D01*
X22603Y-47321D01*
X22603Y-47433D01*
X22547Y-47602D01*
X21872Y-48277D01*
X22603Y-48277D01*
X23672Y-47096D02*
X23109Y-47096D01*
X23053Y-47658D01*
X23109Y-47602D01*
X23222Y-47546D01*
X23503Y-47546D01*
X23615Y-47602D01*
X23672Y-47658D01*
X23728Y-47771D01*
X23728Y-48052D01*
X23672Y-48164D01*
X23615Y-48221D01*
X23503Y-48277D01*
X23222Y-48277D01*
X23109Y-48221D01*
X23053Y-48164D01*
X24178Y-47096D02*
X24178Y-47321D01*
X24628Y-47096D02*
X24628Y-47321D01*
X26371Y-48727D02*
X26315Y-48670D01*
X26203Y-48502D01*
X26146Y-48389D01*
X26090Y-48221D01*
X26034Y-47939D01*
X26034Y-47714D01*
X26090Y-47433D01*
X26146Y-47264D01*
X26203Y-47152D01*
X26315Y-46983D01*
X26371Y-46927D01*
X26765Y-47208D02*
X26821Y-47152D01*
X26934Y-47096D01*
X27215Y-47096D01*
X27327Y-47152D01*
X27384Y-47208D01*
X27440Y-47321D01*
X27440Y-47433D01*
X27384Y-47602D01*
X26709Y-48277D01*
X27440Y-48277D01*
X28452Y-47489D02*
X28452Y-48277D01*
X28171Y-47039D02*
X27890Y-47883D01*
X28621Y-47883D01*
X29971Y-48277D02*
X29971Y-47096D01*
X30477Y-48277D02*
X30477Y-47658D01*
X30421Y-47546D01*
X30308Y-47489D01*
X30140Y-47489D01*
X30027Y-47546D01*
X29971Y-47602D01*
X31208Y-48277D02*
X31096Y-48221D01*
X31039Y-48164D01*
X30983Y-48052D01*
X30983Y-47714D01*
X31039Y-47602D01*
X31096Y-47546D01*
X31208Y-47489D01*
X31377Y-47489D01*
X31489Y-47546D01*
X31546Y-47602D01*
X31602Y-47714D01*
X31602Y-48052D01*
X31546Y-48164D01*
X31489Y-48221D01*
X31377Y-48277D01*
X31208Y-48277D01*
X32277Y-48277D02*
X32164Y-48221D01*
X32108Y-48108D01*
X32108Y-47096D01*
X33177Y-48221D02*
X33064Y-48277D01*
X32839Y-48277D01*
X32727Y-48221D01*
X32670Y-48108D01*
X32670Y-47658D01*
X32727Y-47546D01*
X32839Y-47489D01*
X33064Y-47489D01*
X33177Y-47546D01*
X33233Y-47658D01*
X33233Y-47771D01*
X32670Y-47883D01*
X33683Y-48221D02*
X33795Y-48277D01*
X34020Y-48277D01*
X34133Y-48221D01*
X34189Y-48108D01*
X34189Y-48052D01*
X34133Y-47939D01*
X34020Y-47883D01*
X33852Y-47883D01*
X33739Y-47827D01*
X33683Y-47714D01*
X33683Y-47658D01*
X33739Y-47546D01*
X33852Y-47489D01*
X34020Y-47489D01*
X34133Y-47546D01*
X34583Y-48727D02*
X34639Y-48670D01*
X34751Y-48502D01*
X34808Y-48389D01*
X34864Y-48221D01*
X34920Y-47939D01*
X34920Y-47714D01*
X34864Y-47433D01*
X34808Y-47264D01*
X34751Y-47152D01*
X34639Y-46983D01*
X34583Y-46927D01*
G54D12*
X7980Y-49358D02*
G75*
G03X7980Y-49358I-160J0D01*
G74*
G01*
G54D13*
X9273Y-48655D02*
X9386Y-48655D01*
X9498Y-48711D01*
X9555Y-48767D01*
X9611Y-48880D01*
X9667Y-49105D01*
X9667Y-49386D01*
X9611Y-49611D01*
X9555Y-49723D01*
X9498Y-49780D01*
X9386Y-49836D01*
X9273Y-49836D01*
X9161Y-49780D01*
X9105Y-49723D01*
X9048Y-49611D01*
X8992Y-49386D01*
X8992Y-49105D01*
X9048Y-48880D01*
X9105Y-48767D01*
X9161Y-48711D01*
X9273Y-48655D01*
X10173Y-49723D02*
X10230Y-49780D01*
X10173Y-49836D01*
X10117Y-49780D01*
X10173Y-49723D01*
X10173Y-49836D01*
X10904Y-49161D02*
X10792Y-49105D01*
X10736Y-49048D01*
X10679Y-48936D01*
X10679Y-48880D01*
X10736Y-48767D01*
X10792Y-48711D01*
X10904Y-48655D01*
X11129Y-48655D01*
X11242Y-48711D01*
X11298Y-48767D01*
X11354Y-48880D01*
X11354Y-48936D01*
X11298Y-49048D01*
X11242Y-49105D01*
X11129Y-49161D01*
X10904Y-49161D01*
X10792Y-49217D01*
X10736Y-49273D01*
X10679Y-49386D01*
X10679Y-49611D01*
X10736Y-49723D01*
X10792Y-49780D01*
X10904Y-49836D01*
X11129Y-49836D01*
X11242Y-49780D01*
X11298Y-49723D01*
X11354Y-49611D01*
X11354Y-49386D01*
X11298Y-49273D01*
X11242Y-49217D01*
X11129Y-49161D01*
X12479Y-49836D02*
X11804Y-49836D01*
X12142Y-49836D02*
X12142Y-48655D01*
X12029Y-48823D01*
X11917Y-48936D01*
X11804Y-48992D01*
X12985Y-49836D02*
X12985Y-49048D01*
X12985Y-49161D02*
X13042Y-49105D01*
X13154Y-49048D01*
X13323Y-49048D01*
X13435Y-49105D01*
X13492Y-49217D01*
X13492Y-49836D01*
X13492Y-49217D02*
X13548Y-49105D01*
X13660Y-49048D01*
X13829Y-49048D01*
X13942Y-49105D01*
X13998Y-49217D01*
X13998Y-49836D01*
X14560Y-49836D02*
X14560Y-49048D01*
X14560Y-49161D02*
X14616Y-49105D01*
X14729Y-49048D01*
X14898Y-49048D01*
X15010Y-49105D01*
X15066Y-49217D01*
X15066Y-49836D01*
X15066Y-49217D02*
X15123Y-49105D01*
X15235Y-49048D01*
X15404Y-49048D01*
X15516Y-49105D01*
X15573Y-49217D01*
X15573Y-49836D01*
X17879Y-48598D02*
X16866Y-50117D01*
X19397Y-48655D02*
X19510Y-48655D01*
X19622Y-48711D01*
X19678Y-48767D01*
X19735Y-48880D01*
X19791Y-49105D01*
X19791Y-49386D01*
X19735Y-49611D01*
X19678Y-49723D01*
X19622Y-49780D01*
X19510Y-49836D01*
X19397Y-49836D01*
X19285Y-49780D01*
X19228Y-49723D01*
X19172Y-49611D01*
X19116Y-49386D01*
X19116Y-49105D01*
X19172Y-48880D01*
X19228Y-48767D01*
X19285Y-48711D01*
X19397Y-48655D01*
X20297Y-49723D02*
X20353Y-49780D01*
X20297Y-49836D01*
X20241Y-49780D01*
X20297Y-49723D01*
X20297Y-49836D01*
X21084Y-48655D02*
X21197Y-48655D01*
X21309Y-48711D01*
X21366Y-48767D01*
X21422Y-48880D01*
X21478Y-49105D01*
X21478Y-49386D01*
X21422Y-49611D01*
X21366Y-49723D01*
X21309Y-49780D01*
X21197Y-49836D01*
X21084Y-49836D01*
X20972Y-49780D01*
X20916Y-49723D01*
X20859Y-49611D01*
X20803Y-49386D01*
X20803Y-49105D01*
X20859Y-48880D01*
X20916Y-48767D01*
X20972Y-48711D01*
X21084Y-48655D01*
X21872Y-48655D02*
X22603Y-48655D01*
X22209Y-49105D01*
X22378Y-49105D01*
X22491Y-49161D01*
X22547Y-49217D01*
X22603Y-49330D01*
X22603Y-49611D01*
X22547Y-49723D01*
X22491Y-49780D01*
X22378Y-49836D01*
X22041Y-49836D01*
X21928Y-49780D01*
X21872Y-49723D01*
X23053Y-48767D02*
X23109Y-48711D01*
X23222Y-48655D01*
X23503Y-48655D01*
X23615Y-48711D01*
X23672Y-48767D01*
X23728Y-48880D01*
X23728Y-48992D01*
X23672Y-49161D01*
X22997Y-49836D01*
X23728Y-49836D01*
X24178Y-48655D02*
X24178Y-48880D01*
X24628Y-48655D02*
X24628Y-48880D01*
X26371Y-50286D02*
X26315Y-50230D01*
X26203Y-50061D01*
X26146Y-49948D01*
X26090Y-49780D01*
X26034Y-49498D01*
X26034Y-49273D01*
X26090Y-48992D01*
X26146Y-48823D01*
X26203Y-48711D01*
X26315Y-48542D01*
X26371Y-48486D01*
X26765Y-48767D02*
X26821Y-48711D01*
X26934Y-48655D01*
X27215Y-48655D01*
X27327Y-48711D01*
X27384Y-48767D01*
X27440Y-48880D01*
X27440Y-48992D01*
X27384Y-49161D01*
X26709Y-49836D01*
X27440Y-49836D01*
X28452Y-48655D02*
X28227Y-48655D01*
X28115Y-48711D01*
X28059Y-48767D01*
X27946Y-48936D01*
X27890Y-49161D01*
X27890Y-49611D01*
X27946Y-49723D01*
X28002Y-49780D01*
X28115Y-49836D01*
X28340Y-49836D01*
X28452Y-49780D01*
X28508Y-49723D01*
X28565Y-49611D01*
X28565Y-49330D01*
X28508Y-49217D01*
X28452Y-49161D01*
X28340Y-49105D01*
X28115Y-49105D01*
X28002Y-49161D01*
X27946Y-49217D01*
X27890Y-49330D01*
X29577Y-48655D02*
X29352Y-48655D01*
X29240Y-48711D01*
X29183Y-48767D01*
X29071Y-48936D01*
X29015Y-49161D01*
X29015Y-49611D01*
X29071Y-49723D01*
X29127Y-49780D01*
X29240Y-49836D01*
X29465Y-49836D01*
X29577Y-49780D01*
X29633Y-49723D01*
X29690Y-49611D01*
X29690Y-49330D01*
X29633Y-49217D01*
X29577Y-49161D01*
X29465Y-49105D01*
X29240Y-49105D01*
X29127Y-49161D01*
X29071Y-49217D01*
X29015Y-49330D01*
X31096Y-49836D02*
X31096Y-48655D01*
X31602Y-49836D02*
X31602Y-49217D01*
X31546Y-49105D01*
X31433Y-49048D01*
X31264Y-49048D01*
X31152Y-49105D01*
X31096Y-49161D01*
X32333Y-49836D02*
X32221Y-49780D01*
X32164Y-49723D01*
X32108Y-49611D01*
X32108Y-49273D01*
X32164Y-49161D01*
X32221Y-49105D01*
X32333Y-49048D01*
X32502Y-49048D01*
X32614Y-49105D01*
X32670Y-49161D01*
X32727Y-49273D01*
X32727Y-49611D01*
X32670Y-49723D01*
X32614Y-49780D01*
X32502Y-49836D01*
X32333Y-49836D01*
X33402Y-49836D02*
X33289Y-49780D01*
X33233Y-49667D01*
X33233Y-48655D01*
X34302Y-49780D02*
X34189Y-49836D01*
X33964Y-49836D01*
X33852Y-49780D01*
X33795Y-49667D01*
X33795Y-49217D01*
X33852Y-49105D01*
X33964Y-49048D01*
X34189Y-49048D01*
X34302Y-49105D01*
X34358Y-49217D01*
X34358Y-49330D01*
X33795Y-49442D01*
X34808Y-49780D02*
X34920Y-49836D01*
X35145Y-49836D01*
X35258Y-49780D01*
X35314Y-49667D01*
X35314Y-49611D01*
X35258Y-49498D01*
X35145Y-49442D01*
X34976Y-49442D01*
X34864Y-49386D01*
X34808Y-49273D01*
X34808Y-49217D01*
X34864Y-49105D01*
X34976Y-49048D01*
X35145Y-49048D01*
X35258Y-49105D01*
X35708Y-50286D02*
X35764Y-50230D01*
X35876Y-50061D01*
X35933Y-49948D01*
X35989Y-49780D01*
X36045Y-49498D01*
X36045Y-49273D01*
X35989Y-48992D01*
X35933Y-48823D01*
X35876Y-48711D01*
X35764Y-48542D01*
X35708Y-48486D01*
X7780Y-50717D02*
X7780Y-51117D01*
X7580Y-50917D02*
X7980Y-50917D01*
X9667Y-51395D02*
X8992Y-51395D01*
X9330Y-51395D02*
X9330Y-50214D01*
X9217Y-50383D01*
X9105Y-50495D01*
X8992Y-50551D01*
X10173Y-51282D02*
X10230Y-51339D01*
X10173Y-51395D01*
X10117Y-51339D01*
X10173Y-51282D01*
X10173Y-51395D01*
X10961Y-50214D02*
X11073Y-50214D01*
X11186Y-50270D01*
X11242Y-50326D01*
X11298Y-50439D01*
X11354Y-50664D01*
X11354Y-50945D01*
X11298Y-51170D01*
X11242Y-51282D01*
X11186Y-51339D01*
X11073Y-51395D01*
X10961Y-51395D01*
X10848Y-51339D01*
X10792Y-51282D01*
X10736Y-51170D01*
X10679Y-50945D01*
X10679Y-50664D01*
X10736Y-50439D01*
X10792Y-50326D01*
X10848Y-50270D01*
X10961Y-50214D01*
X11804Y-50326D02*
X11861Y-50270D01*
X11973Y-50214D01*
X12254Y-50214D01*
X12367Y-50270D01*
X12423Y-50326D01*
X12479Y-50439D01*
X12479Y-50551D01*
X12423Y-50720D01*
X11748Y-51395D01*
X12479Y-51395D01*
X12985Y-51395D02*
X12985Y-50607D01*
X12985Y-50720D02*
X13042Y-50664D01*
X13154Y-50607D01*
X13323Y-50607D01*
X13435Y-50664D01*
X13492Y-50776D01*
X13492Y-51395D01*
X13492Y-50776D02*
X13548Y-50664D01*
X13660Y-50607D01*
X13829Y-50607D01*
X13942Y-50664D01*
X13998Y-50776D01*
X13998Y-51395D01*
X14560Y-51395D02*
X14560Y-50607D01*
X14560Y-50720D02*
X14616Y-50664D01*
X14729Y-50607D01*
X14898Y-50607D01*
X15010Y-50664D01*
X15066Y-50776D01*
X15066Y-51395D01*
X15066Y-50776D02*
X15123Y-50664D01*
X15235Y-50607D01*
X15404Y-50607D01*
X15516Y-50664D01*
X15573Y-50776D01*
X15573Y-51395D01*
X17879Y-50158D02*
X16866Y-51676D01*
X19397Y-50214D02*
X19510Y-50214D01*
X19622Y-50270D01*
X19678Y-50326D01*
X19735Y-50439D01*
X19791Y-50664D01*
X19791Y-50945D01*
X19735Y-51170D01*
X19678Y-51282D01*
X19622Y-51339D01*
X19510Y-51395D01*
X19397Y-51395D01*
X19285Y-51339D01*
X19228Y-51282D01*
X19172Y-51170D01*
X19116Y-50945D01*
X19116Y-50664D01*
X19172Y-50439D01*
X19228Y-50326D01*
X19285Y-50270D01*
X19397Y-50214D01*
X20297Y-51282D02*
X20353Y-51339D01*
X20297Y-51395D01*
X20241Y-51339D01*
X20297Y-51282D01*
X20297Y-51395D01*
X21084Y-50214D02*
X21197Y-50214D01*
X21309Y-50270D01*
X21366Y-50326D01*
X21422Y-50439D01*
X21478Y-50664D01*
X21478Y-50945D01*
X21422Y-51170D01*
X21366Y-51282D01*
X21309Y-51339D01*
X21197Y-51395D01*
X21084Y-51395D01*
X20972Y-51339D01*
X20916Y-51282D01*
X20859Y-51170D01*
X20803Y-50945D01*
X20803Y-50664D01*
X20859Y-50439D01*
X20916Y-50326D01*
X20972Y-50270D01*
X21084Y-50214D01*
X22491Y-50607D02*
X22491Y-51395D01*
X22209Y-50158D02*
X21928Y-51001D01*
X22659Y-51001D01*
X23334Y-50214D02*
X23447Y-50214D01*
X23559Y-50270D01*
X23615Y-50326D01*
X23672Y-50439D01*
X23728Y-50664D01*
X23728Y-50945D01*
X23672Y-51170D01*
X23615Y-51282D01*
X23559Y-51339D01*
X23447Y-51395D01*
X23334Y-51395D01*
X23222Y-51339D01*
X23165Y-51282D01*
X23109Y-51170D01*
X23053Y-50945D01*
X23053Y-50664D01*
X23109Y-50439D01*
X23165Y-50326D01*
X23222Y-50270D01*
X23334Y-50214D01*
X24178Y-50214D02*
X24178Y-50439D01*
X24628Y-50214D02*
X24628Y-50439D01*
X26371Y-51845D02*
X26315Y-51789D01*
X26203Y-51620D01*
X26146Y-51507D01*
X26090Y-51339D01*
X26034Y-51057D01*
X26034Y-50832D01*
X26090Y-50551D01*
X26146Y-50383D01*
X26203Y-50270D01*
X26315Y-50101D01*
X26371Y-50045D01*
X26765Y-50326D02*
X26821Y-50270D01*
X26934Y-50214D01*
X27215Y-50214D01*
X27327Y-50270D01*
X27384Y-50326D01*
X27440Y-50439D01*
X27440Y-50551D01*
X27384Y-50720D01*
X26709Y-51395D01*
X27440Y-51395D01*
X28171Y-50214D02*
X28284Y-50214D01*
X28396Y-50270D01*
X28452Y-50326D01*
X28508Y-50439D01*
X28565Y-50664D01*
X28565Y-50945D01*
X28508Y-51170D01*
X28452Y-51282D01*
X28396Y-51339D01*
X28284Y-51395D01*
X28171Y-51395D01*
X28059Y-51339D01*
X28002Y-51282D01*
X27946Y-51170D01*
X27890Y-50945D01*
X27890Y-50664D01*
X27946Y-50439D01*
X28002Y-50326D01*
X28059Y-50270D01*
X28171Y-50214D01*
X29971Y-51395D02*
X29971Y-50214D01*
X30477Y-51395D02*
X30477Y-50776D01*
X30421Y-50664D01*
X30308Y-50607D01*
X30140Y-50607D01*
X30027Y-50664D01*
X29971Y-50720D01*
X31208Y-51395D02*
X31096Y-51339D01*
X31039Y-51282D01*
X30983Y-51170D01*
X30983Y-50832D01*
X31039Y-50720D01*
X31096Y-50664D01*
X31208Y-50607D01*
X31377Y-50607D01*
X31489Y-50664D01*
X31546Y-50720D01*
X31602Y-50832D01*
X31602Y-51170D01*
X31546Y-51282D01*
X31489Y-51339D01*
X31377Y-51395D01*
X31208Y-51395D01*
X32277Y-51395D02*
X32164Y-51339D01*
X32108Y-51226D01*
X32108Y-50214D01*
X33177Y-51339D02*
X33064Y-51395D01*
X32839Y-51395D01*
X32727Y-51339D01*
X32670Y-51226D01*
X32670Y-50776D01*
X32727Y-50664D01*
X32839Y-50607D01*
X33064Y-50607D01*
X33177Y-50664D01*
X33233Y-50776D01*
X33233Y-50889D01*
X32670Y-51001D01*
X33683Y-51339D02*
X33795Y-51395D01*
X34020Y-51395D01*
X34133Y-51339D01*
X34189Y-51226D01*
X34189Y-51170D01*
X34133Y-51057D01*
X34020Y-51001D01*
X33852Y-51001D01*
X33739Y-50945D01*
X33683Y-50832D01*
X33683Y-50776D01*
X33739Y-50664D01*
X33852Y-50607D01*
X34020Y-50607D01*
X34133Y-50664D01*
X34583Y-51845D02*
X34639Y-51789D01*
X34751Y-51620D01*
X34808Y-51507D01*
X34864Y-51339D01*
X34920Y-51057D01*
X34920Y-50832D01*
X34864Y-50551D01*
X34808Y-50383D01*
X34751Y-50270D01*
X34639Y-50101D01*
X34583Y-50045D01*
G54D12*
X7836Y-52824D02*
X7836Y-52128D01*
X7140Y-52128D01*
X7140Y-52824D01*
X7836Y-52824D01*
G54D13*
X8992Y-51885D02*
X9048Y-51829D01*
X9161Y-51773D01*
X9442Y-51773D01*
X9555Y-51829D01*
X9611Y-51885D01*
X9667Y-51998D01*
X9667Y-52110D01*
X9611Y-52279D01*
X8936Y-52954D01*
X9667Y-52954D01*
X10173Y-52841D02*
X10230Y-52898D01*
X10173Y-52954D01*
X10117Y-52898D01*
X10173Y-52841D01*
X10173Y-52954D01*
X11298Y-51773D02*
X10736Y-51773D01*
X10679Y-52335D01*
X10736Y-52279D01*
X10848Y-52223D01*
X11129Y-52223D01*
X11242Y-52279D01*
X11298Y-52335D01*
X11354Y-52448D01*
X11354Y-52729D01*
X11298Y-52841D01*
X11242Y-52898D01*
X11129Y-52954D01*
X10848Y-52954D01*
X10736Y-52898D01*
X10679Y-52841D01*
X12086Y-51773D02*
X12198Y-51773D01*
X12311Y-51829D01*
X12367Y-51885D01*
X12423Y-51998D01*
X12479Y-52223D01*
X12479Y-52504D01*
X12423Y-52729D01*
X12367Y-52841D01*
X12311Y-52898D01*
X12198Y-52954D01*
X12086Y-52954D01*
X11973Y-52898D01*
X11917Y-52841D01*
X11861Y-52729D01*
X11804Y-52504D01*
X11804Y-52223D01*
X11861Y-51998D01*
X11917Y-51885D01*
X11973Y-51829D01*
X12086Y-51773D01*
X12985Y-52954D02*
X12985Y-52167D01*
X12985Y-52279D02*
X13042Y-52223D01*
X13154Y-52167D01*
X13323Y-52167D01*
X13435Y-52223D01*
X13492Y-52335D01*
X13492Y-52954D01*
X13492Y-52335D02*
X13548Y-52223D01*
X13660Y-52167D01*
X13829Y-52167D01*
X13942Y-52223D01*
X13998Y-52335D01*
X13998Y-52954D01*
X14560Y-52954D02*
X14560Y-52167D01*
X14560Y-52279D02*
X14616Y-52223D01*
X14729Y-52167D01*
X14898Y-52167D01*
X15010Y-52223D01*
X15066Y-52335D01*
X15066Y-52954D01*
X15066Y-52335D02*
X15123Y-52223D01*
X15235Y-52167D01*
X15404Y-52167D01*
X15516Y-52223D01*
X15573Y-52335D01*
X15573Y-52954D01*
X17879Y-51717D02*
X16866Y-53235D01*
X19397Y-51773D02*
X19510Y-51773D01*
X19622Y-51829D01*
X19678Y-51885D01*
X19735Y-51998D01*
X19791Y-52223D01*
X19791Y-52504D01*
X19735Y-52729D01*
X19678Y-52841D01*
X19622Y-52898D01*
X19510Y-52954D01*
X19397Y-52954D01*
X19285Y-52898D01*
X19228Y-52841D01*
X19172Y-52729D01*
X19116Y-52504D01*
X19116Y-52223D01*
X19172Y-51998D01*
X19228Y-51885D01*
X19285Y-51829D01*
X19397Y-51773D01*
X20297Y-52841D02*
X20353Y-52898D01*
X20297Y-52954D01*
X20241Y-52898D01*
X20297Y-52841D01*
X20297Y-52954D01*
X21084Y-51773D02*
X21197Y-51773D01*
X21309Y-51829D01*
X21366Y-51885D01*
X21422Y-51998D01*
X21478Y-52223D01*
X21478Y-52504D01*
X21422Y-52729D01*
X21366Y-52841D01*
X21309Y-52898D01*
X21197Y-52954D01*
X21084Y-52954D01*
X20972Y-52898D01*
X20916Y-52841D01*
X20859Y-52729D01*
X20803Y-52504D01*
X20803Y-52223D01*
X20859Y-51998D01*
X20916Y-51885D01*
X20972Y-51829D01*
X21084Y-51773D01*
X22041Y-52954D02*
X22266Y-52954D01*
X22378Y-52898D01*
X22434Y-52841D01*
X22547Y-52673D01*
X22603Y-52448D01*
X22603Y-51998D01*
X22547Y-51885D01*
X22491Y-51829D01*
X22378Y-51773D01*
X22153Y-51773D01*
X22041Y-51829D01*
X21984Y-51885D01*
X21928Y-51998D01*
X21928Y-52279D01*
X21984Y-52392D01*
X22041Y-52448D01*
X22153Y-52504D01*
X22378Y-52504D01*
X22491Y-52448D01*
X22547Y-52392D01*
X22603Y-52279D01*
X23278Y-52279D02*
X23165Y-52223D01*
X23109Y-52167D01*
X23053Y-52054D01*
X23053Y-51998D01*
X23109Y-51885D01*
X23165Y-51829D01*
X23278Y-51773D01*
X23503Y-51773D01*
X23615Y-51829D01*
X23672Y-51885D01*
X23728Y-51998D01*
X23728Y-52054D01*
X23672Y-52167D01*
X23615Y-52223D01*
X23503Y-52279D01*
X23278Y-52279D01*
X23165Y-52335D01*
X23109Y-52392D01*
X23053Y-52504D01*
X23053Y-52729D01*
X23109Y-52841D01*
X23165Y-52898D01*
X23278Y-52954D01*
X23503Y-52954D01*
X23615Y-52898D01*
X23672Y-52841D01*
X23728Y-52729D01*
X23728Y-52504D01*
X23672Y-52392D01*
X23615Y-52335D01*
X23503Y-52279D01*
X24178Y-51773D02*
X24178Y-51998D01*
X24628Y-51773D02*
X24628Y-51998D01*
X26371Y-53404D02*
X26315Y-53348D01*
X26203Y-53179D01*
X26146Y-53066D01*
X26090Y-52898D01*
X26034Y-52616D01*
X26034Y-52392D01*
X26090Y-52110D01*
X26146Y-51942D01*
X26203Y-51829D01*
X26315Y-51660D01*
X26371Y-51604D01*
X26877Y-52954D02*
X27102Y-52954D01*
X27215Y-52898D01*
X27271Y-52841D01*
X27384Y-52673D01*
X27440Y-52448D01*
X27440Y-51998D01*
X27384Y-51885D01*
X27327Y-51829D01*
X27215Y-51773D01*
X26990Y-51773D01*
X26877Y-51829D01*
X26821Y-51885D01*
X26765Y-51998D01*
X26765Y-52279D01*
X26821Y-52392D01*
X26877Y-52448D01*
X26990Y-52504D01*
X27215Y-52504D01*
X27327Y-52448D01*
X27384Y-52392D01*
X27440Y-52279D01*
X28846Y-52954D02*
X28846Y-51773D01*
X29352Y-52954D02*
X29352Y-52335D01*
X29296Y-52223D01*
X29183Y-52167D01*
X29015Y-52167D01*
X28902Y-52223D01*
X28846Y-52279D01*
X30083Y-52954D02*
X29971Y-52898D01*
X29915Y-52841D01*
X29858Y-52729D01*
X29858Y-52392D01*
X29915Y-52279D01*
X29971Y-52223D01*
X30083Y-52167D01*
X30252Y-52167D01*
X30365Y-52223D01*
X30421Y-52279D01*
X30477Y-52392D01*
X30477Y-52729D01*
X30421Y-52841D01*
X30365Y-52898D01*
X30252Y-52954D01*
X30083Y-52954D01*
X31152Y-52954D02*
X31039Y-52898D01*
X30983Y-52785D01*
X30983Y-51773D01*
X32052Y-52898D02*
X31939Y-52954D01*
X31714Y-52954D01*
X31602Y-52898D01*
X31546Y-52785D01*
X31546Y-52335D01*
X31602Y-52223D01*
X31714Y-52167D01*
X31939Y-52167D01*
X32052Y-52223D01*
X32108Y-52335D01*
X32108Y-52448D01*
X31546Y-52560D01*
X32558Y-52898D02*
X32670Y-52954D01*
X32895Y-52954D01*
X33008Y-52898D01*
X33064Y-52785D01*
X33064Y-52729D01*
X33008Y-52616D01*
X32895Y-52560D01*
X32727Y-52560D01*
X32614Y-52504D01*
X32558Y-52392D01*
X32558Y-52335D01*
X32614Y-52223D01*
X32727Y-52167D01*
X32895Y-52167D01*
X33008Y-52223D01*
X33458Y-53404D02*
X33514Y-53348D01*
X33627Y-53179D01*
X33683Y-53066D01*
X33739Y-52898D01*
X33795Y-52616D01*
X33795Y-52392D01*
X33739Y-52110D01*
X33683Y-51942D01*
X33627Y-51829D01*
X33514Y-51660D01*
X33458Y-51604D01*
G54D12*
X7389Y-54625D02*
X7980Y-54035D01*
X7389Y-53444D01*
X6799Y-54035D01*
X7389Y-54625D01*
G54D13*
X8936Y-53332D02*
X9667Y-53332D01*
X9273Y-53782D01*
X9442Y-53782D01*
X9555Y-53838D01*
X9611Y-53894D01*
X9667Y-54007D01*
X9667Y-54288D01*
X9611Y-54401D01*
X9555Y-54457D01*
X9442Y-54513D01*
X9105Y-54513D01*
X8992Y-54457D01*
X8936Y-54401D01*
X10173Y-54401D02*
X10230Y-54457D01*
X10173Y-54513D01*
X10117Y-54457D01*
X10173Y-54401D01*
X10173Y-54513D01*
X10961Y-53332D02*
X11073Y-53332D01*
X11186Y-53388D01*
X11242Y-53444D01*
X11298Y-53557D01*
X11354Y-53782D01*
X11354Y-54063D01*
X11298Y-54288D01*
X11242Y-54401D01*
X11186Y-54457D01*
X11073Y-54513D01*
X10961Y-54513D01*
X10848Y-54457D01*
X10792Y-54401D01*
X10736Y-54288D01*
X10679Y-54063D01*
X10679Y-53782D01*
X10736Y-53557D01*
X10792Y-53444D01*
X10848Y-53388D01*
X10961Y-53332D01*
X12086Y-53332D02*
X12198Y-53332D01*
X12311Y-53388D01*
X12367Y-53444D01*
X12423Y-53557D01*
X12479Y-53782D01*
X12479Y-54063D01*
X12423Y-54288D01*
X12367Y-54401D01*
X12311Y-54457D01*
X12198Y-54513D01*
X12086Y-54513D01*
X11973Y-54457D01*
X11917Y-54401D01*
X11861Y-54288D01*
X11804Y-54063D01*
X11804Y-53782D01*
X11861Y-53557D01*
X11917Y-53444D01*
X11973Y-53388D01*
X12086Y-53332D01*
X12985Y-54513D02*
X12985Y-53726D01*
X12985Y-53838D02*
X13042Y-53782D01*
X13154Y-53726D01*
X13323Y-53726D01*
X13435Y-53782D01*
X13492Y-53894D01*
X13492Y-54513D01*
X13492Y-53894D02*
X13548Y-53782D01*
X13660Y-53726D01*
X13829Y-53726D01*
X13942Y-53782D01*
X13998Y-53894D01*
X13998Y-54513D01*
X14560Y-54513D02*
X14560Y-53726D01*
X14560Y-53838D02*
X14616Y-53782D01*
X14729Y-53726D01*
X14898Y-53726D01*
X15010Y-53782D01*
X15066Y-53894D01*
X15066Y-54513D01*
X15066Y-53894D02*
X15123Y-53782D01*
X15235Y-53726D01*
X15404Y-53726D01*
X15516Y-53782D01*
X15573Y-53894D01*
X15573Y-54513D01*
X17879Y-53276D02*
X16866Y-54794D01*
X19397Y-53332D02*
X19510Y-53332D01*
X19622Y-53388D01*
X19678Y-53444D01*
X19735Y-53557D01*
X19791Y-53782D01*
X19791Y-54063D01*
X19735Y-54288D01*
X19678Y-54401D01*
X19622Y-54457D01*
X19510Y-54513D01*
X19397Y-54513D01*
X19285Y-54457D01*
X19228Y-54401D01*
X19172Y-54288D01*
X19116Y-54063D01*
X19116Y-53782D01*
X19172Y-53557D01*
X19228Y-53444D01*
X19285Y-53388D01*
X19397Y-53332D01*
X20297Y-54401D02*
X20353Y-54457D01*
X20297Y-54513D01*
X20241Y-54457D01*
X20297Y-54401D01*
X20297Y-54513D01*
X21478Y-54513D02*
X20803Y-54513D01*
X21141Y-54513D02*
X21141Y-53332D01*
X21028Y-53501D01*
X20916Y-53613D01*
X20803Y-53669D01*
X22603Y-54513D02*
X21928Y-54513D01*
X22266Y-54513D02*
X22266Y-53332D01*
X22153Y-53501D01*
X22041Y-53613D01*
X21928Y-53669D01*
X23278Y-53838D02*
X23165Y-53782D01*
X23109Y-53726D01*
X23053Y-53613D01*
X23053Y-53557D01*
X23109Y-53444D01*
X23165Y-53388D01*
X23278Y-53332D01*
X23503Y-53332D01*
X23615Y-53388D01*
X23672Y-53444D01*
X23728Y-53557D01*
X23728Y-53613D01*
X23672Y-53726D01*
X23615Y-53782D01*
X23503Y-53838D01*
X23278Y-53838D01*
X23165Y-53894D01*
X23109Y-53951D01*
X23053Y-54063D01*
X23053Y-54288D01*
X23109Y-54401D01*
X23165Y-54457D01*
X23278Y-54513D01*
X23503Y-54513D01*
X23615Y-54457D01*
X23672Y-54401D01*
X23728Y-54288D01*
X23728Y-54063D01*
X23672Y-53951D01*
X23615Y-53894D01*
X23503Y-53838D01*
X24178Y-53332D02*
X24178Y-53557D01*
X24628Y-53332D02*
X24628Y-53557D01*
X26371Y-54963D02*
X26315Y-54907D01*
X26203Y-54738D01*
X26146Y-54625D01*
X26090Y-54457D01*
X26034Y-54176D01*
X26034Y-53951D01*
X26090Y-53669D01*
X26146Y-53501D01*
X26203Y-53388D01*
X26315Y-53219D01*
X26371Y-53163D01*
X26709Y-53332D02*
X27496Y-53332D01*
X26990Y-54513D01*
X28846Y-54513D02*
X28846Y-53332D01*
X29352Y-54513D02*
X29352Y-53894D01*
X29296Y-53782D01*
X29183Y-53726D01*
X29015Y-53726D01*
X28902Y-53782D01*
X28846Y-53838D01*
X30083Y-54513D02*
X29971Y-54457D01*
X29915Y-54401D01*
X29858Y-54288D01*
X29858Y-53951D01*
X29915Y-53838D01*
X29971Y-53782D01*
X30083Y-53726D01*
X30252Y-53726D01*
X30365Y-53782D01*
X30421Y-53838D01*
X30477Y-53951D01*
X30477Y-54288D01*
X30421Y-54401D01*
X30365Y-54457D01*
X30252Y-54513D01*
X30083Y-54513D01*
X31152Y-54513D02*
X31039Y-54457D01*
X30983Y-54344D01*
X30983Y-53332D01*
X32052Y-54457D02*
X31939Y-54513D01*
X31714Y-54513D01*
X31602Y-54457D01*
X31546Y-54344D01*
X31546Y-53894D01*
X31602Y-53782D01*
X31714Y-53726D01*
X31939Y-53726D01*
X32052Y-53782D01*
X32108Y-53894D01*
X32108Y-54007D01*
X31546Y-54119D01*
X32558Y-54457D02*
X32670Y-54513D01*
X32895Y-54513D01*
X33008Y-54457D01*
X33064Y-54344D01*
X33064Y-54288D01*
X33008Y-54176D01*
X32895Y-54119D01*
X32727Y-54119D01*
X32614Y-54063D01*
X32558Y-53951D01*
X32558Y-53894D01*
X32614Y-53782D01*
X32727Y-53726D01*
X32895Y-53726D01*
X33008Y-53782D01*
X33458Y-54963D02*
X33514Y-54907D01*
X33627Y-54738D01*
X33683Y-54625D01*
X33739Y-54457D01*
X33795Y-54176D01*
X33795Y-53951D01*
X33739Y-53669D01*
X33683Y-53501D01*
X33627Y-53388D01*
X33514Y-53219D01*
X33458Y-53163D01*
M02*
