G04 (created by PCBNEW (2013-07-07 BZR 4022)-stable) date 2014-10-27 00:32:54*
%MOIN*%
G04 Gerber Fmt 3.4, Leading zero omitted, Abs format*
%FSLAX34Y34*%
G01*
G70*
G90*
G04 APERTURE LIST*
%ADD10C,0.00590551*%
%ADD11C,0.055*%
%ADD12R,0.055X0.055*%
%ADD13R,0.0590551X0.0590551*%
%ADD14C,0.0590551*%
%ADD15R,0.0787402X0.0787402*%
%ADD16R,0.06X0.06*%
%ADD17C,0.06*%
%ADD18C,0.11811*%
%ADD19C,0.15748*%
G04 APERTURE END LIST*
G54D10*
G54D11*
X35500Y-8500D03*
X35500Y-7500D03*
X43500Y-6500D03*
X42500Y-6500D03*
X42500Y-7500D03*
X41500Y-7500D03*
X41500Y-6500D03*
X40500Y-6500D03*
X40500Y-7500D03*
X39500Y-7500D03*
X39500Y-6500D03*
X38500Y-6500D03*
X44500Y-9500D03*
X44500Y-8500D03*
X43500Y-9500D03*
X43500Y-8500D03*
X42500Y-9500D03*
X42500Y-8500D03*
X41500Y-9500D03*
X41500Y-8500D03*
X40500Y-9500D03*
X40500Y-8500D03*
X39500Y-9500D03*
X39500Y-8500D03*
X38500Y-7500D03*
X37500Y-7500D03*
X38500Y-9500D03*
X38500Y-8500D03*
X37500Y-9500D03*
X37500Y-8500D03*
G54D12*
X26500Y-16500D03*
G54D11*
X27500Y-16500D03*
X28500Y-16500D03*
X29500Y-16500D03*
X30500Y-16500D03*
X31500Y-16500D03*
X32500Y-16500D03*
X33500Y-16500D03*
X34500Y-16500D03*
X35500Y-16500D03*
X36500Y-16500D03*
X37500Y-16500D03*
X38500Y-16500D03*
X39500Y-16500D03*
X40500Y-16500D03*
X41500Y-16500D03*
X42500Y-16500D03*
X43500Y-16500D03*
X44500Y-16500D03*
X45500Y-16500D03*
X45500Y-10500D03*
X44500Y-10500D03*
X43500Y-10500D03*
X42500Y-10500D03*
X41500Y-10500D03*
X40500Y-10500D03*
X39500Y-10500D03*
X38500Y-10500D03*
X37500Y-10500D03*
X36500Y-10500D03*
X35500Y-10500D03*
X34500Y-10500D03*
X33500Y-10500D03*
X32500Y-10500D03*
X31500Y-10500D03*
X30500Y-10500D03*
X29500Y-10500D03*
X28500Y-10500D03*
X27500Y-10500D03*
X26500Y-10500D03*
X44500Y-7500D03*
X43500Y-7500D03*
G54D13*
X32000Y-8500D03*
G54D14*
X32000Y-7500D03*
X33000Y-8500D03*
X33000Y-7500D03*
X34000Y-8500D03*
X34000Y-7500D03*
G54D12*
X23500Y-16000D03*
G54D11*
X23500Y-15000D03*
X23500Y-14000D03*
X23500Y-13000D03*
X23500Y-12000D03*
X23500Y-11000D03*
X23500Y-10000D03*
X23500Y-9000D03*
X20500Y-9000D03*
X20500Y-10000D03*
X20500Y-11000D03*
X20500Y-12000D03*
X20500Y-13000D03*
X20500Y-14000D03*
X20500Y-15000D03*
X20500Y-16000D03*
G54D12*
X18500Y-16000D03*
G54D11*
X18500Y-15000D03*
X18500Y-14000D03*
X18500Y-13000D03*
X18500Y-12000D03*
X18500Y-11000D03*
X18500Y-10000D03*
X18500Y-9000D03*
X15500Y-9000D03*
X15500Y-10000D03*
X15500Y-11000D03*
X15500Y-12000D03*
X15500Y-13000D03*
X15500Y-14000D03*
X15500Y-15000D03*
X15500Y-16000D03*
G54D13*
X18500Y-7000D03*
G54D14*
X18500Y-6000D03*
X19500Y-7000D03*
X19500Y-6000D03*
X20500Y-7000D03*
X20500Y-6000D03*
X21500Y-7000D03*
X21500Y-6000D03*
X22500Y-7000D03*
X22500Y-6000D03*
X23500Y-7000D03*
X23500Y-6000D03*
X24500Y-7000D03*
X24500Y-6000D03*
X29500Y-8500D03*
X28500Y-8500D03*
X27500Y-8500D03*
G54D13*
X30500Y-7500D03*
G54D14*
X29500Y-7500D03*
X28500Y-7500D03*
X27500Y-7500D03*
X30500Y-8500D03*
X26500Y-7500D03*
X26500Y-8500D03*
G54D13*
X25000Y-20250D03*
G54D14*
X25000Y-19250D03*
X26000Y-20250D03*
X26000Y-19250D03*
X27000Y-20250D03*
X27000Y-19250D03*
X28000Y-20250D03*
X28000Y-19250D03*
X29000Y-20250D03*
X29000Y-19250D03*
X30000Y-20250D03*
X30000Y-19250D03*
X31000Y-20250D03*
X31000Y-19250D03*
G54D15*
X9000Y-25000D03*
X10000Y-25000D03*
X12000Y-25000D03*
X13000Y-25000D03*
X15000Y-25000D03*
X16000Y-25000D03*
X18000Y-25000D03*
X19000Y-25000D03*
X21500Y-25000D03*
X22500Y-25000D03*
X25000Y-25000D03*
X26000Y-25000D03*
X28500Y-25000D03*
X29500Y-25000D03*
X32000Y-25000D03*
X33000Y-25000D03*
X35500Y-25000D03*
X36500Y-25000D03*
X39000Y-25000D03*
X40000Y-25000D03*
X42000Y-25000D03*
X43000Y-25000D03*
X45000Y-25000D03*
X46000Y-25000D03*
G54D11*
X13000Y-28750D03*
X12000Y-28750D03*
X11000Y-33750D03*
X10000Y-33750D03*
X18000Y-29750D03*
X18000Y-30750D03*
G54D16*
X15500Y-31750D03*
G54D17*
X16500Y-31750D03*
X17500Y-31750D03*
G54D16*
X15500Y-30250D03*
G54D17*
X16500Y-30250D03*
G54D12*
X11000Y-32750D03*
G54D11*
X12000Y-32750D03*
X13000Y-32750D03*
X14000Y-32750D03*
X14000Y-29750D03*
X13000Y-29750D03*
X12000Y-29750D03*
X11000Y-29750D03*
G54D12*
X9500Y-32750D03*
G54D11*
X9500Y-28750D03*
G54D12*
X14500Y-33250D03*
G54D11*
X18500Y-33250D03*
G54D12*
X14000Y-28750D03*
G54D11*
X18000Y-28750D03*
X15500Y-34250D03*
X16500Y-34250D03*
G54D16*
X12000Y-34250D03*
G54D17*
X13000Y-34250D03*
X14000Y-34250D03*
G54D11*
X24500Y-10000D03*
X24500Y-9000D03*
X24500Y-12000D03*
X24500Y-11000D03*
X24500Y-14000D03*
X24500Y-13000D03*
X24500Y-16000D03*
X24500Y-15000D03*
X19500Y-16000D03*
X19500Y-15000D03*
X19500Y-14000D03*
X19500Y-13000D03*
X19500Y-12000D03*
X19500Y-11000D03*
X19500Y-10000D03*
X19500Y-9000D03*
X14500Y-16000D03*
X14500Y-15000D03*
X14500Y-14000D03*
X14500Y-13000D03*
X14500Y-12000D03*
X14500Y-11000D03*
X14500Y-10000D03*
X14500Y-9000D03*
G54D14*
X13250Y-38500D03*
X13250Y-39500D03*
G54D12*
X10750Y-39500D03*
G54D11*
X11750Y-39500D03*
X11750Y-38500D03*
X10250Y-40500D03*
X11250Y-40500D03*
X13250Y-40500D03*
X12250Y-40500D03*
G54D16*
X9250Y-38000D03*
G54D17*
X9250Y-39000D03*
G54D16*
X14250Y-36000D03*
G54D17*
X14250Y-37000D03*
G54D12*
X9250Y-36000D03*
G54D11*
X13250Y-36000D03*
G54D12*
X13250Y-37000D03*
G54D11*
X9250Y-37000D03*
G54D16*
X35000Y-6000D03*
G54D17*
X36000Y-6000D03*
X37000Y-6000D03*
G54D14*
X33500Y-5750D03*
X32500Y-5750D03*
G54D13*
X24750Y-40500D03*
G54D14*
X26750Y-40500D03*
X26750Y-42500D03*
X24750Y-42500D03*
G54D13*
X20750Y-36250D03*
G54D14*
X22750Y-36250D03*
X22750Y-38250D03*
X20750Y-38250D03*
G54D13*
X28750Y-36250D03*
G54D14*
X30750Y-36250D03*
X30750Y-38250D03*
X28750Y-38250D03*
G54D13*
X24750Y-32000D03*
G54D14*
X26750Y-32000D03*
X26750Y-34000D03*
X24750Y-34000D03*
G54D13*
X24750Y-29750D03*
G54D14*
X24750Y-28750D03*
X25750Y-29750D03*
X25750Y-28750D03*
X26750Y-28750D03*
X26750Y-29750D03*
G54D11*
X34250Y-9500D03*
X35250Y-9500D03*
G54D16*
X38500Y-17500D03*
G54D17*
X37500Y-17500D03*
G54D13*
X46250Y-9000D03*
G54D14*
X45250Y-9000D03*
X46250Y-8000D03*
X45250Y-8000D03*
X45250Y-7000D03*
X46250Y-7000D03*
G54D18*
X15000Y-6250D03*
X46000Y-17500D03*
G54D19*
X45500Y-20000D03*
X9500Y-20000D03*
X27000Y-23250D03*
G54D18*
X45500Y-26250D03*
X9500Y-26250D03*
X27000Y-26250D03*
X18500Y-34250D03*
X11000Y-28000D03*
X14500Y-38250D03*
X9000Y-40250D03*
G54D16*
X26500Y-15000D03*
G54D17*
X26500Y-14000D03*
X26500Y-13000D03*
G54D16*
X34500Y-13500D03*
G54D17*
X35500Y-13500D03*
G54D16*
X33500Y-12000D03*
G54D19*
X31000Y-28500D03*
X20500Y-28500D03*
X20500Y-42750D03*
X31000Y-42750D03*
M02*
